<?xml version="1.0" encoding="utf-8"?>
<!-- Generator: Adobe Illustrator 16.0.0, SVG Export Plug-In . SVG Version: 6.00 Build 0)  -->
<!DOCTYPE svg PUBLIC "-//W3C//DTD SVG 1.1//EN" "http://www.w3.org/Graphics/SVG/1.1/DTD/svg11.dtd" [
	<!ENTITY ns_flows "http://ns.adobe.com/Flows/1.0/">
	<!ENTITY ns_extend "http://ns.adobe.com/Extensibility/1.0/">
	<!ENTITY ns_ai "http://ns.adobe.com/AdobeIllustrator/10.0/">
	<!ENTITY ns_graphs "http://ns.adobe.com/Graphs/1.0/">
]>
<svg version="1.1" id="Layer_1" xmlns:x="&ns_extend;" xmlns:i="&ns_ai;" xmlns:graph="&ns_graphs;"
	 xmlns="http://www.w3.org/2000/svg" xmlns:xlink="http://www.w3.org/1999/xlink" xmlns:a="http://ns.adobe.com/AdobeSVGViewerExtensions/3.0/"
	 x="0px" y="0px" width="864px" height="864px" viewBox="0 0 864 864" enable-background="new 0 0 864 864" xml:space="preserve">
<path fill="#E6E7E8" d="M788.348,507.32c-5.112-8.553-12.091-15.309-19.55-21.59c-8.129-6.846-17.068-12.547-26.99-16.533
	c-0.892-0.357-2.167-0.367-3.057-0.016c-3.332,1.318-6.456,3.33-9.883,4.197c-4.265,1.076-8.654,1.68-13.352,2.407l-13.84-6.048
	l6.014-8.646c0.175,1.699,0.346,3.398,0.508,5.098c0.22,2.307,0.89,3.947,3.841,3.464c5.323-0.871,10.677-1.582,16.033-2.226
	c3.006-0.361,4.718-1.964,5.314-4.826c1.922-9.238,4.465-18.404,5.586-27.74c3.32-27.622,1.625-55.2-2.575-82.599
	c-1.567-10.221-4.437-20.242-6.722-30.352c-0.479-2.117-1.909-3.23-4.004-3.264c-7.155-0.117-14.312-0.164-21.468-0.193
	c-1.742-0.006-2.536,0.813-2.527,2.726c0.01,2.192,0.017,4.384,0.022,6.566l-6.27-3.793c0.004-2.754,0-5.508-0.024-8.262
	c-0.048-5.322-0.699-5.999-5.909-7.032c-8.771-1.74-17.548-3.451-26.332-5.119l6.918-33.603c1.691,0.311,3.383,0.618,5.073,0.936
	c3.229,0.608,6.468,1.16,10.008,1.792c0.065-1.469,0.214-2.491,0.141-3.497c-1.521-20.925-2.423-41.902-6.312-62.603
	c-3.996-21.272-9.661-41.9-21.446-60.376c-9.627-15.093-22.056-27.236-37.912-35.71c-17.591-9.401-36.203-16.232-55.381-21.517
	c-28.194-7.77-57.06-11.307-86.193-12.479c-33.151-1.333-66.317-0.878-99.435,1.149c-29.314,1.795-58.275,5.95-86.5,14.396
	c-18.651,5.581-37.017,11.962-53.801,22.004c-18.495,11.065-31.49,27.206-40.675,46.455c-5.935,12.438-9.451,25.698-12.257,39.171
	c-4.147,19.912-5.727,40.097-6.839,60.342c-0.233,4.225-0.434,8.452-0.681,13.292l-8.495,38.421c-0.943,1.134-1.163,2.878-1.326,6
	l-8.781,1.624c-6.954,0.121-13.909,0.248-20.863,0.352c-2.439,0.037-3.841,1.321-4.443,3.589c-1.384,5.213-3.236,10.358-4.03,15.66
	c-1.982,13.24-3.659,26.533-5.137,39.84c-2.747,24.744-1.42,49.412,2.079,73.987c0.552,3.877,1.571,7.773,3.032,11.396
	c0.146,0.36,0.361,0.729,0.611,1.094l-8.638,5.302c-10.03,4.482-19.024,10.558-27.717,17.233
	c-8.904,6.838-16.251,14.914-21.074,25.027c-6.114,12.818-6.895,26.406-4.704,40.25c2.024,12.793,5.823,24.889,14.461,34.947
	c1.324,1.541,2.925,2.844,4.399,4.258c0.218-0.193,0.437-0.385,0.655-0.578c-0.31-0.807-0.636-1.609-0.934-2.421l8.752,2.673
	c2.338,4.953,4.75,9.874,7.173,14.785c10.354,20.988,24.297,39.609,38.631,57.955c2.791,3.572,5.785,6.986,9.196,11.086
	c0.487-1.547,0.778-2.197,0.892-2.877c0.572-3.409,1.275-6.778,2.1-10.107l3.432,7.398c-3.132,15.534-2.532,31.291,0.617,46.932
	c6.045,30.027,18.183,57.637,37.395,81.65c9.042,11.303,20.599,19.924,34.426,24.986c17.635,6.457,36.031,9.408,54.645,10.094
	c21.953,0.811,43.859-0.479,65.299-6.006c13.228-3.412,26.233-7.281,36.908-16.475c6.569-5.658,10.578-12.352,8.73-21.291
	c-1.345-6.5-3.099-12.922-4.833-19.334c-1.194-4.414-0.961-5.268,3.104-7.465c1.188-0.643,2.485-1.107,3.601-1.852
	c0.924-0.617,1.654-1.525,2.47-2.303c-0.143-0.244-0.285-0.49-0.427-0.734c-2.926,0.58-5.839,1.238-8.781,1.721
	c-3.56,0.584-5.438-0.256-6.368-3.418c-4.364-14.84-8.582-29.721-12.812-44.6c-0.618-2.172,0.348-3.619,2.471-4.307
	c2.075-0.672,4.113-1.535,6.239-1.947c3.58-0.695,4.203-2.885,4.071-6.133c-0.325-7.992-0.504-15.996-0.437-23.994
	c0.038-4.449,1.75-5.832,6.255-5.902c2.388-0.039,4.785,0.221,7.165,0.1c3.558-0.18,4.281-1.35,2.822-4.572
	c-1.627-3.592-3.685-7.012-5.047-10.693c-0.59-1.596-0.531-4.023,0.301-5.453c4.198-7.213,11.083-10.541,18.94-12.396
	c4.008-0.947,6.59,0.291,8.956,3.65c2.889,4.105,6.41,7.766,9.908,11.914c3.839-4.711,7.196-9.061,10.831-13.166
	c1.199-1.354,3.142-2.982,4.695-2.934c9.022,0.285,16.414,4.035,21.646,11.58c1.682,2.426,1.843,4.975,0.461,7.65
	c-1.478,2.861-2.913,5.748-4.238,8.682c-1.788,3.959-0.981,5.145,3.275,5.076c2.494-0.041,4.989-0.145,7.482-0.1
	c3.001,0.053,4.93,1.398,5.109,4.635c0.069,1.242,0.306,2.48,0.284,3.719c-0.117,6.857-0.122,13.725-0.521,20.568
	c-0.182,3.125,0.607,4.883,3.776,5.627c1.998,0.469,3.88,1.457,5.795,2.252c2.803,1.166,3.602,3.416,2.851,6.125
	c-3.969,14.305-7.947,28.605-12.093,42.859c-1.224,4.205-2.236,4.586-6.7,3.885c-2.74-0.43-5.468-0.941-8.2-1.418
	c-0.186,0.439-0.371,0.879-0.557,1.318c1.997,1.059,3.973,2.162,5.998,3.166c3.519,1.744,4.09,2.967,3.165,6.66
	c-1.612,6.443-3.232,12.887-4.735,19.357c-1.623,6.992,0.066,13.141,4.941,18.439c7.943,8.635,18.154,13.277,29.105,16.631
	c21.364,6.541,43.245,8.883,65.545,8.727c17.877-0.125,35.441-2.135,52.767-6.418c22.795-5.633,40.041-18.873,53.008-38.252
	c11.677-17.447,20.006-36.422,25.905-56.43c6.086-20.637,7.939-41.101,4.362-61.335l4.358-5.627
	c0.823,3.014,1.264,6.165,1.943,9.231c0.351,0.236,0.702,0.473,1.053,0.711c0.607-0.938,1.16-1.914,1.828-2.805
	c8.85-11.787,18.12-23.283,26.483-35.404c13.483-19.545,25.808-39.801,33.417-62.453l9.822-14.684
	c-0.441,5.244-1.66,10.493-3.321,15.744c-1.707,5.391-3.877,10.635-5.837,15.945c4.443-2.344,7.172-6.057,9.521-10.104
	c7.342-12.65,10.316-26.506,10.397-40.91C796.445,527.811,794.209,517.125,788.348,507.32z"/>
<g>
	<path fill-rule="evenodd" clip-rule="evenodd" d="M803.247,536.971c-0.599,5.867-0.909,11.781-1.849,17.592
		c-3.363,20.816-13.055,37.691-31.243,49.139c-0.829,0.521-1.562,1.398-2.021,2.275c-14.038,26.758-32.19,50.627-51.671,73.555
		c-1.866,2.195-2.642,4.354-2.532,7.287c0.816,22.062-3.614,43.15-12.022,63.504c-7.417,17.949-16.104,35.1-29.143,49.766
		c-11.187,12.586-24.269,22.184-40.317,27.801c-22.876,8.008-46.414,10.145-70.374,8.549c-13.046-0.869-26.152-1.766-39.039-3.84
		c-18.879-3.037-36.615-9.469-51.615-21.891c-2.273-1.883-4.504-4.219-5.784-6.822c-3.404-6.924-9.11-10.619-16.118-12.752
		c-10.411-3.17-20.927-4.295-31.652-1.484c-6.627,1.736-11.768,5.295-15.598,11.064c-3.091,4.654-6.345,9.293-10.147,13.359
		c-6.281,6.717-14.945,9.574-23.197,12.988c-18.229,7.539-37.486,10.08-56.941,11.039c-13.16,0.646-26.424,0.979-39.549,0.088
		c-16.715-1.133-33.177-4.262-48.591-11.445c-18.266-8.512-32.197-21.902-43.147-38.52c-10.811-16.402-19.126-34.033-24.592-52.938
		c-4.445-15.375-6.732-31.059-5.981-47.098c0.108-2.318-0.458-4.057-1.923-5.926c-11.725-14.955-23.666-29.762-34.799-45.15
		c-6.061-8.379-10.75-17.758-15.901-26.775c-1.467-2.568-3.086-4.705-5.602-6.418c-17.478-11.898-26.686-28.873-29.86-49.441
		c-2.09-13.545-2.068-26.905,3.425-39.821c6.048-14.218,15.351-25.96,27.747-34.991c8.699-6.338,18.096-11.713,27.088-17.656
		c0.839-0.555,1.597-2.225,1.411-3.188c-2.944-15.244-4.366-30.648-5.018-46.13c-0.123-2.917-1.216-4.01-4.083-4.511
		c-7.932-1.383-9.407-3.12-9.606-11.131c-0.105-4.244-0.04-8.559,0.613-12.738c0.888-5.674,3.883-7.746,9.581-7.53
		c4.371,0.166,4.216,0.147,4.734-4.187c2.125-17.763,5.286-35.326,10.223-52.551c1.172-4.09,3.479-6.51,7.82-6.68
		c7.357-0.287,14.716-0.717,22.075-0.726c3.931-0.005,6.492-2.183,5.784-6.123c-1.375-7.655-0.285-15.138,1.468-22.537
		c0.527-2.225,1.702-4.571,3.268-6.201c1.741-1.814,2.499-3.647,2.648-6.025c0.767-12.235,1.291-24.497,2.462-36.695
		c2.633-27.429,7.548-54.394,19.559-79.483c5.816-12.151,13.839-22.854,23.483-32.404c13.22-13.092,29.758-20.264,46.546-27.078
		c20.782-8.435,42.341-14.196,64.386-18.131c20.494-3.659,41.19-5.624,61.979-6.477c30.864-1.268,61.732-1.674,92.616-0.419
		c30.244,1.229,59.978,5.502,89.062,14.009c17.098,5.001,33.72,11.306,49.482,19.576c17.889,9.386,32.463,22.427,43.1,39.942
		c12.005,19.767,17.686,41.536,21.867,63.876c3.274,17.496,4.904,35.182,5.632,52.959c0.11,2.699,0.462,5.386,0.614,8.084
		c0.172,3.051,1.11,5.48,3.148,8.06c2.114,2.677,3.334,6.515,3.738,9.986c0.691,5.935,0.521,11.979,0.56,17.978
		c0.026,4.295,1.898,6.073,6.11,6.206c7.66,0.242,15.321,0.656,22.963,1.242c4.326,0.332,6.807,3.045,8.009,7.183
		c4.914,16.914,8.033,34.178,10.026,51.648c0.328,2.87,1.125,3.941,4.146,3.743c6.186-0.405,9.335,2.108,9.858,8.172
		c0.419,4.843,0.4,9.773,0.026,14.623c-0.417,5.392-2.399,7.179-7.704,8.233c-5.5,1.093-5.163,1.127-5.716,6.634
		c-1.39,13.836-3.006,27.654-4.762,41.449c-0.625,4.914-0.902,4.829,3.36,7.076c12.476,6.573,24.437,14.088,34.112,24.361
		c12.223,12.978,21.618,27.698,22.884,46.266c0.048,0.709,0.317,1.402,0.482,2.104C803.247,535.307,803.247,536.139,803.247,536.971
		z M467.213,757.4c-0.186,0.439-0.371,0.879-0.557,1.318c1.997,1.059,3.973,2.162,5.998,3.166c3.519,1.744,4.09,2.967,3.165,6.66
		c-1.612,6.443-3.232,12.887-4.735,19.357c-1.623,6.992,0.066,13.141,4.941,18.439c7.943,8.635,18.154,13.277,29.105,16.631
		c21.364,6.541,43.245,8.883,65.545,8.727c17.877-0.125,35.441-2.135,52.767-6.418c22.795-5.633,40.041-18.873,53.008-38.252
		c11.677-17.447,20.006-36.422,25.905-56.43c8.955-30.367,8.761-60.361-4.444-89.801c-7.519-16.76-18.925-29.248-36.386-35.443
		c-9.768-3.467-19.787-6.244-29.748-9.139c-23.309-6.777-45.122-16.969-65.77-29.533c-23.181-14.105-43.397-32.156-63.528-50.157
		c-14.016-12.533-29.196-22.876-46.451-30.364c-15.519-6.734-31.005-6.045-46.495-0.572c-13.884,4.904-25.981,13.023-37.172,22.432
		c-14.391,12.098-28.4,24.654-42.882,36.639c-16.36,13.541-33.75,25.596-52.879,35.039c-15.22,7.516-30.765,14.086-47.112,18.789
		c-10.063,2.895-20.17,5.865-29.854,9.793c-9.889,4.012-18.47,10.238-25.043,18.975c-6.885,9.152-10.458,19.775-14.08,30.393
		c-6.667,19.545-6.751,39.604-2.751,59.471c6.045,30.027,18.183,57.637,37.395,81.65c9.042,11.303,20.599,19.924,34.426,24.986
		c17.635,6.457,36.031,9.408,54.645,10.094c21.953,0.811,43.859-0.479,65.299-6.006c13.228-3.412,26.233-7.281,36.908-16.475
		c6.569-5.658,10.578-12.352,8.73-21.291c-1.345-6.5-3.099-12.922-4.833-19.334c-1.194-4.414-0.961-5.268,3.104-7.465
		c1.188-0.643,2.485-1.107,3.601-1.852c0.924-0.617,1.654-1.525,2.47-2.303c-0.143-0.244-0.285-0.49-0.427-0.734
		c-2.926,0.58-5.839,1.238-8.781,1.721c-3.56,0.584-5.438-0.256-6.368-3.418c-4.364-14.84-8.582-29.721-12.812-44.6
		c-0.618-2.172,0.348-3.619,2.471-4.307c2.075-0.672,4.113-1.535,6.239-1.947c3.58-0.695,4.203-2.885,4.071-6.133
		c-0.325-7.992-0.504-15.996-0.437-23.994c0.038-4.449,1.75-5.832,6.255-5.902c2.388-0.039,4.785,0.221,7.165,0.1
		c3.558-0.18,4.281-1.35,2.822-4.572c-1.627-3.592-3.685-7.012-5.047-10.693c-0.59-1.596-0.531-4.023,0.301-5.453
		c4.198-7.213,11.083-10.541,18.94-12.396c4.008-0.947,6.59,0.291,8.956,3.65c2.889,4.105,6.41,7.766,9.908,11.914
		c3.839-4.711,7.196-9.061,10.831-13.166c1.199-1.354,3.142-2.982,4.695-2.934c9.022,0.285,16.414,4.035,21.646,11.58
		c1.682,2.426,1.843,4.975,0.461,7.65c-1.478,2.861-2.913,5.748-4.238,8.682c-1.788,3.959-0.981,5.145,3.275,5.076
		c2.494-0.041,4.989-0.145,7.482-0.1c3.001,0.053,4.93,1.398,5.109,4.635c0.069,1.242,0.306,2.48,0.284,3.719
		c-0.117,6.857-0.122,13.725-0.521,20.568c-0.182,3.125,0.607,4.883,3.776,5.627c1.998,0.469,3.88,1.457,5.795,2.252
		c2.803,1.166,3.602,3.416,2.851,6.125c-3.969,14.305-7.947,28.605-12.093,42.859c-1.224,4.205-2.236,4.586-6.7,3.885
		C472.673,758.389,469.945,757.877,467.213,757.4z M177.871,273.293c2.009-0.291,3.333-0.422,4.631-0.68
		c51.167-10.169,102.813-16.539,154.925-18.708c28.243-1.175,56.524-1.489,84.791-2.045c40.756-0.802,81.487-0.172,122.179,2.477
		c43.925,2.859,87.505,8.39,130.758,16.537c3.229,0.608,6.468,1.16,10.008,1.792c0.065-1.469,0.214-2.491,0.141-3.497
		c-1.521-20.925-2.423-41.902-6.312-62.603c-3.996-21.272-9.661-41.9-21.446-60.376c-9.627-15.093-22.056-27.236-37.912-35.71
		c-17.591-9.401-36.203-16.232-55.381-21.517c-28.194-7.77-57.06-11.307-86.193-12.479c-33.151-1.333-66.317-0.878-99.435,1.149
		c-29.314,1.795-58.275,5.95-86.5,14.396c-18.651,5.581-37.017,11.962-53.801,22.004c-18.495,11.065-31.49,27.206-40.675,46.455
		c-5.935,12.438-9.451,25.698-12.257,39.171c-4.147,19.912-5.727,40.097-6.839,60.342
		C178.319,264.226,178.118,268.453,177.871,273.293z M632.459,590.322c2.932-5.494,5.636-10.857,8.607-16.068
		c6.223-10.918,12.511-21.799,18.918-32.609c5.039-8.502,9.849-17.021,12.469-26.707c4.846-17.904-1.703-36.096-21.577-43.623
		c-3.964-1.502-8.16-2.385-12.233-3.607c-27.356-8.211-53.092-20.08-76.729-36.017c-18.156-12.242-35.647-25.493-53.16-38.657
		c-15.148-11.386-30.268-22.727-48.01-29.885c-18.731-7.558-37.605-8.182-56.482-0.631c-16.174,6.47-30.254,16.408-43.992,26.918
		c-15.596,11.934-31.02,24.125-47.056,35.444c-26.29,18.556-54.598,33.312-85.47,42.875c-7.31,2.265-14.857,3.763-21.582,7.871
		c-11.65,7.119-18.47,21.122-16.434,32.942c1.732,10.055,5.486,19.286,10.597,28.1c10.47,18.057,20.705,36.248,31.052,54.375
		c0.287,0.504,0.749,0.906,1.108,1.328c2.552-1.523,4.884-3.084,7.359-4.367c10.96-5.678,22.227-10.818,32.89-17.002
		c18.27-10.596,34.261-24.184,48.721-39.549c15.809-16.797,31.466-33.738,47.324-50.488c10.906-11.521,22.896-21.73,36.924-29.385
		c15.098-8.237,30.757-9.27,46.599-2.979c13.19,5.239,24.637,13.583,34.548,23.586c18.647,18.82,36.845,38.09,55.082,57.312
		c22.597,23.814,48.343,43.057,78.977,55.395C624.818,586.469,628.555,588.473,632.459,590.322z M180.815,369.257
		c0.264-0.012,0.527-0.022,0.791-0.034c0.239,0.826,0.553,1.639,0.705,2.48c0.87,4.805,1.646,9.626,2.557,14.422
		c2.442,12.854,4.645,25.764,7.515,38.523c1.81,8.045,5.186,15.682,10.822,21.868c5.938,6.516,13.216,11.369,21.327,14.867
		c1.034,0.447,2.457,0.646,3.5,0.322c17.013-5.301,33.524-11.992,49.074-20.605c26.51-14.684,50.906-32.584,74.882-51.061
		c13.994-10.784,28.192-21.259,44.189-29.071c23.318-11.388,46.671-11.388,70.079-0.672c16.08,7.362,30.22,17.859,44.262,28.426
		c22.425,16.875,44.806,33.783,69.375,47.542c17.545,9.827,35.747,18.115,54.855,24.382c1.297,0.425,3.047,0.766,4.166,0.244
		c14.201-6.623,26.457-15.622,30.685-31.541c3.887-14.631,6.473-29.61,9.523-44.458c0.924-4.499,1.489-9.072,2.219-13.611
		c1.428,6.398,2.39,12.751,2.723,19.136c1.188,22.841,2.816,45.621,6.866,68.177c0.579,3.221,0.624,6.669,0.186,9.913
		c-1.062,7.866-5.496,14.012-11.034,19.404c-1.6,1.559-1.879,3.04-1.454,5.254c0.856,4.465,1.21,9.027,1.729,13.554
		c0.135,1.171,0.117,2.358,0.169,3.539c0.296,0.112,0.592,0.224,0.889,0.336c3.539-4.804,7.094-9.595,10.614-14.411
		c7.808-10.686,10.538-22.543,8.716-35.66c-1.085-7.812-1.832-15.699-2.17-23.577c-1.153-26.896-2.21-53.8-2.994-80.71
		c-0.393-13.504-0.054-27.029-0.176-40.543c-0.048-5.322-0.699-5.999-5.909-7.032c-11.104-2.203-22.214-4.386-33.344-6.455
		c-32.824-6.1-65.885-10.678-99.188-12.779c-34.02-2.146-68.098-3.619-102.172-4.545c-22.116-0.602-44.281,0.015-66.41,0.617
		c-20.779,0.565-41.573,1.388-62.3,2.903c-22.069,1.614-44.092,3.965-66.093,6.373c-28.643,3.135-56.943,8.406-85.063,14.636
		c-6.013,1.333-6.55,2.106-6.875,8.305c-0.049,0.933-0.027,1.871-0.01,2.806c0.177,9.873,0.714,19.755,0.47,29.618
		c-0.534,21.504-1.293,43.006-2.293,64.494c-0.714,15.355-1.739,30.706-3.061,46.02c-0.921,10.681-0.632,21.058,4.981,30.505
		c3.175,5.344,6.951,10.336,10.524,15.438c1.25,1.785,2.704,3.429,4.233,5.349c0.707-5.906,0.976-11.302,2.113-16.506
		c0.717-3.279,0.146-5.297-2.224-7.611c-7.488-7.316-10.927-16.275-9.703-26.81c1.211-10.428,2.857-20.819,3.655-31.277
		c1.354-17.723,2.175-35.488,3.263-53.231C180.148,374.083,180.538,371.673,180.815,369.257z M150.718,675.773
		c0.487-1.547,0.778-2.197,0.892-2.877c2.199-13.102,6.225-25.637,12.378-37.387c1.74-3.322,1.256-5.484-0.613-8.393
		c-18.93-29.445-37.264-59.246-52.954-90.59c-2.354-4.703-4.73-9.396-7.412-14.719c-2.505,2.305-4.647,4.19-6.694,6.174
		c-6.655,6.452-10.795,14.057-11.298,23.543c-0.505,9.535,1.126,18.701,4.812,27.373c4.007,9.426,8.529,18.643,13.062,27.834
		c10.354,20.988,24.297,39.609,38.631,57.955C144.313,668.26,147.308,671.674,150.718,675.773z M761.021,520.645
		c-0.604,1.033-1.036,1.723-1.421,2.437c-9.194,17.097-17.964,34.438-27.691,51.226c-10.197,17.598-21.296,34.674-32.052,51.947
		c-1.287,2.068-1.604,3.697-0.547,6.232c3.989,9.559,7.638,19.266,11.111,29.025c1.294,3.633,1.757,7.562,2.599,11.357
		c0.351,0.236,0.702,0.473,1.053,0.711c0.607-0.938,1.16-1.914,1.828-2.805c8.85-11.787,18.12-23.283,26.483-35.404
		c14.118-20.465,26.979-41.703,34.473-65.662c3.748-11.982,4.479-23.879-2.776-35.08
		C770.628,529.299,766.887,524.26,761.021,520.645z M162.436,372.173c-0.176-0.015-0.353-0.031-0.528-0.046
		c0-16.531-0.028-33.062,0.036-49.593c0.007-2.015-0.45-3.235-2.673-3.197c-6.954,0.121-13.909,0.248-20.863,0.352
		c-2.439,0.037-3.841,1.321-4.443,3.589c-1.384,5.213-3.236,10.358-4.03,15.66c-1.982,13.24-3.659,26.533-5.137,39.84
		c-2.747,24.744-1.42,49.412,2.079,73.987c0.552,3.877,1.571,7.773,3.032,11.396c0.695,1.723,2.756,3.676,4.512,4.049
		c5.878,1.246,11.9,1.807,17.861,2.672c2.334,0.34,3.158-0.815,3.367-2.941c0.547-5.584,1.376-11.145,1.747-16.738
		C159.138,424.865,160.766,398.518,162.436,372.173z M701.712,361.984c1.255,26.096,2.225,49.344,3.557,72.572
		c0.606,10.565,1.925,21.09,2.93,31.633c0.22,2.307,0.89,3.947,3.841,3.464c5.323-0.871,10.677-1.582,16.033-2.226
		c3.006-0.361,4.718-1.964,5.314-4.826c1.922-9.238,4.465-18.404,5.586-27.74c3.32-27.622,1.625-55.2-2.575-82.599
		c-1.567-10.221-4.437-20.242-6.722-30.352c-0.479-2.117-1.909-3.23-4.004-3.264c-7.155-0.117-14.312-0.164-21.468-0.193
		c-1.742-0.006-2.536,0.813-2.527,2.726C701.741,335.726,701.712,350.272,701.712,361.984z M706.884,482.117
		c-1.972,3.799-3.525,7.695-5.837,11.074c-6.267,9.164-12.764,18.175-19.336,27.123c-11.703,15.934-21.927,32.768-30.911,50.355
		c-3.205,6.275-6.019,12.75-9.034,19.123c-0.949,2.008-0.397,3.047,1.812,3.496c2.643,0.537,5.234,1.32,7.857,1.967
		c3.126,0.768,6.808,2.859,9.243,1.881c2.608-1.051,4.223-4.898,5.966-7.713c13.279-21.447,26.62-42.857,39.644-64.457
		c5.463-9.06,10.183-18.566,15.295-27.84c0.962-1.746,0.872-2.705-0.94-4.038c-4.335-3.185-8.368-6.78-12.533-10.196
		C707.732,482.584,707.28,482.365,706.884,482.117z M157.317,483.405c-4.445,3.547-8.579,7.147-13.039,10.282
		c-2.521,1.773-2.761,3.184-1.271,5.777c10.855,18.9,21.255,38.07,32.459,56.76c8.531,14.229,18.001,27.895,27.184,41.723
		c0.49,0.738,2.319,1.143,3.319,0.889c4.624-1.168,9.163-2.67,13.757-3.963c3.65-1.029,3.93-1.426,2.397-4.848
		c-9.919-22.143-21.921-43.094-35.884-62.943C176.189,512.793,163.892,499.982,157.317,483.405z M152.108,477.309
		c-2.863-0.369-5.005-0.627-7.142-0.924c-6.58-0.915-13.359-1.328-18.956-5.42c-1.565-1.145-2.586-1.098-4.131-0.407
		c-10.03,4.482-19.024,10.558-27.717,17.233c-8.904,6.838-16.251,14.914-21.074,25.027c-6.114,12.818-6.895,26.406-4.704,40.25
		c2.024,12.793,5.823,24.889,14.461,34.947c1.324,1.541,2.925,2.844,4.399,4.258c0.218-0.193,0.437-0.385,0.655-0.578
		c-0.4-1.041-0.845-2.068-1.193-3.127c-2.337-7.094-5.108-14.084-6.859-21.32c-2.084-8.609-1.565-17.322,1.384-25.801
		c3.365-9.676,9.581-17.312,17.698-23.186c9.587-6.935,19.653-13.208,29.488-19.805c2.227-1.494,4.439-3.034,6.503-4.74
		c2.046-1.69,3.764-3.789,5.86-5.405C144.791,485.223,148.968,482.351,152.108,477.309z M776.465,589.924
		c4.443-2.344,7.172-6.057,9.521-10.104c7.342-12.65,10.316-26.506,10.397-40.91c0.062-11.1-2.174-21.785-8.035-31.59
		c-5.112-8.553-12.091-15.309-19.55-21.59c-8.129-6.846-17.068-12.547-26.99-16.533c-0.892-0.357-2.167-0.367-3.057-0.016
		c-3.332,1.318-6.456,3.33-9.883,4.197c-5.277,1.332-10.739,1.936-16.749,2.953c1.057,1.449,1.678,2.791,2.71,3.627
		c3.778,3.059,7.7,5.941,11.554,8.91c0.892,0.686,1.784,1.391,2.569,2.191c1.395,1.422,2.477,3.278,4.093,4.336
		c8.861,5.801,17.801,11.484,26.8,17.07c9.473,5.879,17.049,13.405,21.927,23.582c6.042,12.607,4.538,25.264,0.53,37.93
		C780.595,579.369,778.425,584.613,776.465,589.924z M173.85,564.68c-10.122,6.051-19.822,11.809-29.435,17.711
		c-0.523,0.32-0.744,2.07-0.373,2.762c2.058,3.826,4.254,7.59,6.633,11.225c0.421,0.643,2.25,1.121,2.888,0.75
		c9.402-5.477,18.728-11.084,28.003-16.771c0.538-0.33,0.951-1.895,0.639-2.418C179.612,573.594,176.834,569.359,173.85,564.68z
		 M712.099,596.652c2.824-4.781,5.555-9.279,8.082-13.889c0.24-0.436-0.59-1.922-1.275-2.334c-8.894-5.35-17.866-10.57-26.78-15.885
		c-1.47-0.877-2.347-0.77-3.269,0.75c-2.153,3.549-4.379,7.059-6.715,10.49c-1.168,1.717-0.892,2.605,0.903,3.637
		c6.209,3.57,12.323,7.303,18.477,10.965C704.892,592.393,708.271,594.385,712.099,596.652z M162.417,545.818
		c-9.798,5.965-19.285,11.688-28.668,17.574c-0.604,0.379-0.894,2.26-0.511,3.039c1.688,3.439,3.725,6.707,5.538,10.088
		c0.966,1.801,2.005,1.936,3.721,0.885c8.763-5.357,17.568-10.648,26.407-15.881c1.554-0.92,2.106-1.744,1.05-3.412
		C167.519,554.262,165.186,550.35,162.417,545.818z M692.986,558.775c0.625,0.389,0.888,0.559,1.155,0.719
		c9.257,5.553,18.529,11.078,27.757,16.68c1.525,0.926,2.271,0.299,2.969-0.936c1.939-3.436,3.842-6.891,5.833-10.297
		c0.856-1.463,0.647-2.486-0.813-3.355c-8.92-5.301-17.812-10.652-26.778-15.875c-0.58-0.338-2.165-0.053-2.49,0.451
		C698.044,550.166,695.663,554.293,692.986,558.775z M152.488,528.365c-0.668,0.076-0.911,0.035-1.07,0.131
		c-9.218,5.56-18.451,11.096-27.595,16.773c-0.595,0.369-0.986,2.037-0.669,2.736c1.367,3.014,3.069,5.873,4.575,8.826
		c0.804,1.578,1.772,1.734,3.233,0.844c8.755-5.348,17.537-10.648,26.306-15.971c1.331-0.809,1.874-1.768,0.94-3.33
		C156.247,535.098,154.41,531.746,152.488,528.365z M712.259,527.023c-0.254-0.217-0.509-0.432-0.763-0.648
		c-0.289,0.648-0.533,1.322-0.877,1.941c-1.56,2.807-3.104,5.623-4.742,8.383c-1.039,1.75-0.498,2.809,1.126,3.785
		c8.612,5.174,17.2,10.389,25.774,15.627c1.443,0.883,2.418,0.797,3.256-0.797c1.444-2.752,2.908-5.502,4.544-8.141
		c1.158-1.871,0.71-2.895-1.097-3.963c-8.56-5.062-17.06-10.222-25.586-15.339C713.369,527.557,712.805,527.305,712.259,527.023z
		 M154.984,603.334c2.091,3.512,3.886,6.768,5.981,9.816c0.366,0.533,2.259,0.637,3.007,0.195
		c9.202-5.439,18.31-11.039,27.477-16.539c1.563-0.938,2.019-1.873,0.906-3.473c-1.539-2.215-3.013-4.479-4.412-6.783
		c-1-1.648-1.951-1.979-3.741-0.877c-7.246,4.457-14.599,8.74-21.898,13.113C159.924,600.211,157.59,601.713,154.984,603.334z
		 M708.926,601.557c-10.543-6.291-20.807-12.416-31.382-18.727c-2.173,3.379-4.237,6.352-5.978,9.502
		c-0.326,0.59,0.349,2.357,1.052,2.797c8.964,5.602,18.031,11.033,27.035,16.57c1.719,1.059,2.789,0.732,3.76-0.961
		C705.061,607.871,706.812,605.062,708.926,601.557z M744.827,539.039c1.37-2.502,2.498-4.586,3.649-6.656
		c1.233-2.219,0.789-3.669-1.538-5.012c-7.358-4.244-14.572-8.733-21.874-13.074c-5.137-3.054-5.221-3.047-7.949,2.223
		c-2.36,4.559-3.461,3.912,1.766,6.936c1.255,0.725,2.467,1.525,3.71,2.27C729.862,530.084,737.137,534.436,744.827,539.039z
		 M149.066,522.33c-1.553-2.943-2.866-5.626-4.407-8.17c-0.277-0.457-1.734-0.738-2.248-0.432
		c-8.812,5.26-17.576,10.602-26.295,16.016c-0.613,0.381-1.298,1.658-1.092,2.18c1.123,2.838,2.514,5.566,3.984,8.699
		C129.247,534.391,139.038,528.434,149.066,522.33z M111.584,525.99c9.731-5.884,19.042-11.482,28.289-17.184
		c0.546-0.336,1.021-1.693,0.778-2.246c-0.986-2.246-2.265-4.361-3.754-7.113c-9.371,6.163-18.455,12.104-27.464,18.154
		c-0.505,0.34-0.753,1.7-0.519,2.379C109.581,521.916,110.559,523.746,111.584,525.99z M752.371,524.368
		c0.963-1.971,1.718-3.768,2.69-5.438c0.996-1.707,0.273-2.742-1.098-3.615c-7.181-4.57-14.306-9.229-21.577-13.648
		c-6.062-3.686-6.368-3.514-8.807,3.203c-0.273,0.753,0.155,2.368,0.771,2.744C733.466,513.179,742.669,518.603,752.371,524.368z
		 M694.297,623.695c0.655-0.697,1.188-1.168,1.604-1.725c3.138-4.188,3.13-4.191-1.3-6.941c-6.261-3.889-12.508-7.797-18.783-11.66
		c-2.208-1.359-4.451-2.666-6.749-3.863c-0.573-0.299-1.42-0.072-2.141-0.088c0.374,0.707,0.692,1.453,1.149,2.1
		c0.217,0.307,0.692,0.441,1.066,0.621c7.396,3.561,13.761,8.48,19.195,14.613C690.317,618.984,692.226,621.279,694.297,623.695z
		 M169.094,625.355c0.798-0.467,1.146-0.559,1.316-0.785c6.9-9.209,15.294-16.619,25.76-21.588c0.537-0.254,0.75-1.191,1.115-1.811
		c-0.771-0.07-1.747-0.482-2.282-0.162c-7.035,4.217-14.018,8.523-20.992,12.84c-2.879,1.783-5.708,3.645-8.81,5.631
		C166.64,621.652,167.814,623.424,169.094,625.355z"/>
	<path fill-rule="evenodd" clip-rule="evenodd" d="M524.343,724.281c-0.492-0.912-0.596-1.361-0.878-1.59
		c-8.218-6.6-11.912-16.129-16.099-25.25c-7.841-17.082-15.074-34.449-23.182-51.402c-3.597-7.52-8.174-14.725-13.252-21.348
		c-7.3-9.518-17.575-14.197-29.499-15.543c-12.282-1.391-24.205-0.434-35.036,5.848c-8.146,4.725-14.5,11.734-18.772,20.02
		c-7.083,13.734-13.415,27.859-20.001,41.848c-5.706,12.119-11.088,24.396-17.106,36.357c-2.237,4.445-5.875,8.188-9.299,12.83
		c2.818-0.268,5.408-0.443,7.977-0.779c2.365-0.309,4.693-0.939,7.062-1.166c4.183-0.402,5.539,0.443,7.348,4.219
		c4.609,9.623,7.408,19.83,9.688,30.197c0.512,2.328,0.881,4.695,1.174,7.061c1.105,8.924-3.081,15.605-9.166,21.49
		c-7.112,6.879-15.777,11.035-24.934,14.348c-15.683,5.672-32.01,7.709-48.476,6.709c-25.786-1.568-48.495-10.52-66.295-30.203
		c-18.148-20.066-18.016-57.488,10.884-75.031c14.688-8.916,30.844-10.322,47.459-4.896c11.597,3.787,20.931,10.799,29.507,19.17
		c4.416,4.311,9.877,6.393,16.129,6.182c7.334-0.244,12.485-4.32,15.566-10.375c6.444-12.664,12.36-25.604,18.331-38.504
		c5.232-11.307,9.983-22.842,15.424-34.043c5.64-11.611,12.518-22.641,24.381-28.791c20.847-10.809,41.902-11.385,62.237,1.432
		c9.123,5.75,15.126,14.658,19.644,24.164c10.12,21.291,19.54,42.914,29.448,64.307c2.033,4.391,4.776,8.49,7.502,12.514
		c7.257,10.713,21.17,9.521,29.389,1.6c6.229-6.004,12.553-11.812,20.405-15.691c16.336-8.066,32.948-9.414,49.976-2.252
		c19.557,8.225,31.101,27.82,29.099,49.01c-1.651,17.471-10.552,30.375-24.27,40.666c-12.452,9.342-26.418,14.705-41.649,17.102
		c-25.247,3.975-49.496,0.654-72.574-10.367c-6.936-3.312-12.593-8.375-17.242-14.545c-5.083-6.744-4.535-14.273-2.92-21.82
		c2.284-10.672,5.106-21.207,9.824-31.129c1.329-2.797,3.243-4.514,6.587-4.008c3.898,0.59,7.802,1.146,11.712,1.645
		C521.551,724.4,522.689,724.281,524.343,724.281z"/>
	<path fill-rule="evenodd" clip-rule="evenodd" d="M221.412,320.186c26.762-1.681,53.534-3.217,80.284-5.086
		c24.987-1.745,49.947-3.876,74.926-5.759c6.208-0.468,12.44-0.842,18.662-0.86c4.283-0.013,8.215,1.433,10.751,5.261
		c2.851,4.302,2.434,11.678-1.896,15.896c-3.951,3.848-8.604,7.192-13.439,9.872c-14.89,8.252-30.353,15.512-44.966,24.211
		c-19.893,11.844-39.169,24.72-58.785,37.034c-8.879,5.573-17.758,11.193-26.963,16.193c-12.585,6.837-22.762,4.32-31.362-7.157
		c-6.804-9.08-11.386-19.335-14.868-30.03c-3.179-9.764-6.086-19.644-8.486-29.623c-1.472-6.121-1.986-12.505-2.532-18.805
		c-0.748-8.635,4.96-11.044,11.173-11.385c2.486-0.136,4.987-0.022,7.481-0.022C221.399,320.012,221.406,320.099,221.412,320.186z
		 M246.055,413.655c-0.948-1.333-1.416-1.968-1.86-2.62c-2.907-4.264-6.404-8.247-8.612-12.849
		c-10.573-22.029-17.395-45.266-21.375-69.357c-0.163-0.987-0.78-2.616-1.32-2.672c-1.083-0.115-2.582,0.35-3.315,1.132
		c-0.909,0.969-1.658,2.49-1.694,3.794c-0.086,3.094,0.067,6.233,0.52,9.295c1.888,12.786,5.49,25.129,10.079,37.185
		c4.035,10.6,8.682,20.907,15.665,29.959C236.905,411.104,240.585,413.203,246.055,413.655z"/>
	<path fill-rule="evenodd" clip-rule="evenodd" d="M474.934,308.213c16.095,1.289,30.588,2.534,45.094,3.591
		c19.274,1.405,38.551,2.796,57.84,3.953c21.985,1.318,43.986,2.375,65.981,3.536c2.897,0.153,5.854-0.064,8.687,0.437
		c6.621,1.169,8.906,4.351,8.659,11.062c-0.431,11.725-2.811,23.109-6.337,34.224c-2.944,9.283-6.006,18.581-9.868,27.504
		c-2.732,6.311-6.333,12.434-10.528,17.884c-8.21,10.667-18.592,12.783-30.306,6.029c-13.929-8.031-27.374-16.896-41.135-25.222
		c-21.761-13.165-43.503-26.364-65.468-39.18c-10.393-6.064-21.342-11.166-31.926-16.912c-5.622-3.052-9.097-7.772-9.447-14.431
		c-0.292-5.543,2.023-9.362,7.41-10.737C467.771,308.885,472.156,308.617,474.934,308.213z M616.373,413.085
		c4.539,0.754,8.442-0.412,11.024-3.72c4.005-5.129,7.937-10.448,10.959-16.183c7.156-13.578,11.908-28.113,15.038-43.118
		c1.311-6.279,1.896-12.719,2.59-19.11c0.264-2.425-0.761-4.541-3.332-5.38c-1.598-0.521-2.613-0.303-2.982,1.833
		c-3.45,20.01-8.445,39.63-15.826,58.565c-3.81,9.772-7.683,19.64-16.914,25.947C616.725,412.06,616.676,412.43,616.373,413.085z"/>
</g>
</svg>
